<?xml version="1.0" encoding="UTF-8" standalone="no"?>
<!-- Created with Inkscape (http://www.inkscape.org/) -->

<svg
   xmlns:dc="http://purl.org/dc/elements/1.1/"
   xmlns:cc="http://creativecommons.org/ns#"
   xmlns:rdf="http://www.w3.org/1999/02/22-rdf-syntax-ns#"
   xmlns:svg="http://www.w3.org/2000/svg"
   xmlns="http://www.w3.org/2000/svg"
   xmlns:sodipodi="http://sodipodi.sourceforge.net/DTD/sodipodi-0.dtd"
   xmlns:inkscape="http://www.inkscape.org/namespaces/inkscape"
   width="500"
   height="500"
   id="svg2"
   version="1.1"
   inkscape:version="0.48.5 r10040"
   sodipodi:docname="logo.svg">
  <defs
     id="defs4" />
  <sodipodi:namedview
     id="base"
     pagecolor="#ffffff"
     bordercolor="#666666"
     borderopacity="1.0"
     inkscape:pageopacity="0.0"
     inkscape:pageshadow="2"
     inkscape:zoom="0.35"
     inkscape:cx="-207.14286"
     inkscape:cy="357.95916"
     inkscape:document-units="px"
     inkscape:current-layer="layer1"
     showgrid="false"
     inkscape:window-width="1366"
     inkscape:window-height="706"
     inkscape:window-x="0"
     inkscape:window-y="27"
     inkscape:window-maximized="1" />
  <metadata
     id="metadata7">
    <rdf:RDF>
      <cc:Work
         rdf:about="">
        <dc:format>image/svg+xml</dc:format>
        <dc:type
           rdf:resource="http://purl.org/dc/dcmitype/StillImage" />
        <dc:title />
      </cc:Work>
    </rdf:RDF>
  </metadata>
  <g
     inkscape:label="Layer 1"
     inkscape:groupmode="layer"
     id="layer1"
     transform="translate(0,-552.36218)">
    <g
       id="g2985"
       transform="matrix(0.5,0,0,0.5,0,526.18109)">
      <path
         id="rect2985"
         transform="translate(0,52.362183)"
         d="M 50,0 C 22.3,0 0,22.3 0,50 l 0,900 c 0,27.7 22.3,50 50,50 l 900,0 c 27.7,0 50,-22.3 50,-50 l 0,-900 C 1000,22.3 977.7,0 950,0 L 50,0 z m 50,50 800,0 c 27.7,0 50,22.3 50,50 l 0,800 c 0,27.7 -22.3,50 -50,50 l -800,0 C 72.3,950 50,927.7 50,900 L 50,100 C 50,72.3 72.3,50 100,50 z"
         mask="none"
         style="fill:#2ecc71;fill-opacity:1"
         inkscape:connector-curvature="0" />
      <text
         sodipodi:linespacing="125%"
         id="text3773"
         y="898.78522"
         x="204.89891"
         style="font-size:796.26751709px;font-style:normal;font-variant:normal;font-weight:bold;font-stretch:normal;text-align:start;line-height:125%;letter-spacing:0px;word-spacing:0px;writing-mode:lr-tb;text-anchor:start;fill:#2ecc71;fill-opacity:1;stroke:none;font-family:Oswald Stencil;-inkscape-font-specification:Oswald Stencil Bold"
         xml:space="preserve"><tspan
           y="898.78522"
           x="204.89891"
           id="tspan3775"
           sodipodi:role="line">M</tspan></text>
    </g>
  </g>
</svg>
